<svg xmlns="http://www.w3.org/2000/svg" viewBox="0 0 256 256" width="256" height="256">
  <defs>
    <linearGradient id="vaultGrad" x1="0%" y1="0%" x2="100%" y2="100%">
      <stop offset="0%" style="stop-color:#004D40;stop-opacity:1" />
      <stop offset="100%" style="stop-color:#00796B;stop-opacity:1" />
    </linearGradient>
    <linearGradient id="lockGrad" x1="0%" y1="0%" x2="0%" y2="100%">
      <stop offset="0%" style="stop-color:#FFD54F;stop-opacity:1" />
      <stop offset="100%" style="stop-color:#F9A825;stop-opacity:1" />
    </linearGradient>
  </defs>

  <!-- Background circle -->
  <circle cx="128" cy="134" r="122" fill="url(#vaultGrad)" />

  <!-- Official Nim crown -->
  <!-- Original viewBox: 0 0 89 61, scaled to ~110px wide, positioned above vault -->
  <g transform="translate(72, 6) scale(1.258)">
    <g transform="translate(-664.83823,-596.61255)">
      <path style="fill:#f3d400;fill-opacity:1;stroke:none"
            d="m 709.69141,596.61258 c 0,0 -3.41031,2.69499 -6.88691,5.37174 -3.57641,-0.11362 -10.59106,0.68718 -14.39187,2.06946 -3.50133,-2.21819 -6.57787,-4.66728 -6.57787,-4.66728 0,0 -2.62896,4.52282 -4.28224,7.17702 -2.45187,1.30403 -4.91362,2.77074 -7.10764,4.7113 -2.55188,-1.01333 -5.5101,-2.24876 -5.60665,-2.28959 3.37945,6.81645 5.65131,13.64192 11.83134,17.74436 9.83897,-15.53906 55.55981,-14.10685 65.60219,-0.0881 6.49004,-3.38511 9.01412,-10.66815 11.56647,-17.39212 -0.27986,0.0922 -3.75271,1.25487 -6.00396,2.11349 -1.34414,-1.46336 -4.51234,-3.71327 -6.31301,-4.79936 -1.70802,-3.12771 -4.19395,-7.35313 -4.19395,-7.35313 0,0 -2.94437,2.1899 -6.35714,4.5792 -4.61059,-0.85108 -10.1872,-1.88519 -14.87749,-1.62916 -3.19286,-2.62436 -6.40127,-5.54786 -6.40127,-5.54786 z" />
      <path style="fill:#ffe953;fill-opacity:1;stroke:none"
            d="m 668.33241,623.47127 c 0,0 4.78987,11.5978 8.1165,19.65678 14.09625,18.59727 50.09234,19.89014 65.7848,0.36006 3.71345,-8.36876 8.72334,-20.1298 8.72334,-20.1298 -4.0259,5.96409 -10.5778,10.08114 -14.61301,12.29885 -2.86735,1.57082 -9.48338,2.52031 -9.48338,2.52031 l -17.36961,-9.00108 -17.46941,8.82104 c 0,0 -6.52806,-1.04882 -9.4834,-2.4303 -5.96472,-3.18408 -9.9764,-6.94592 -14.20583,-12.09586 z" />
    </g>
  </g>

  <!-- Vault door outline -->
  <rect x="58" y="84" width="140" height="130" rx="8" ry="8"
        fill="none" stroke="#E0F2F1" stroke-width="4" />

  <!-- Vault door inner border -->
  <rect x="68" y="94" width="120" height="110" rx="4" ry="4"
        fill="#00695C" stroke="#80CBC4" stroke-width="2" />

  <!-- Lock body -->
  <rect x="100" y="134" width="56" height="44" rx="6" ry="6"
        fill="url(#lockGrad)" stroke="#F57F17" stroke-width="2" />

  <!-- Lock shackle -->
  <path d="M110,134 V118 a18,18 0 0,1 36,0 V134"
        fill="none" stroke="#FFD54F" stroke-width="6"
        stroke-linecap="round" />

  <!-- Keyhole -->
  <circle cx="128" cy="153" r="7" fill="#004D40" />
  <rect x="125" y="153" width="6" height="14" rx="2" ry="2" fill="#004D40" />
</svg>
